<?xml version="1.0" encoding="UTF-8" standalone="no"?>
<!DOCTYPE svg PUBLIC "-//W3C//DTD SVG 1.1//EN" "http://www.w3.org/Graphics/SVG/1.1/DTD/svg11.dtd">
<svg width="100%" height="100%" viewBox="0 0 18 18" version="1.1" xmlns="http://www.w3.org/2000/svg" xmlns:xlink="http://www.w3.org/1999/xlink" xml:space="preserve" xmlns:serif="http://www.serif.com/" style="fill-rule:evenodd;clip-rule:evenodd;">
    <g transform="matrix(0.404697,-9.78195e-19,9.78195e-19,-0.412684,-0.974073,17.7787)">
        <path d="M40.348,37.898C38.736,39.467 36.609,40.068 32.27,40.068L15.426,40.068C11.43,40.068 9.238,39.445 7.67,37.855C6.08,36.287 5.479,34.16 5.479,30.121L5.479,13.277C5.479,8.916 6.059,6.789 7.648,5.242C9.238,3.652 11.365,3.051 15.705,3.051L32.27,3.051C36.609,3.051 38.758,3.652 40.348,5.242C41.916,6.811 42.496,8.916 42.496,13.277L42.496,29.842C42.496,34.225 41.916,36.33 40.348,37.898ZM41.443,30.4L41.443,12.74C41.443,9.539 40.842,7.391 39.531,6.059C38.178,4.684 35.986,4.104 32.828,4.104L15.168,4.104C11.988,4.104 9.797,4.705 8.465,6.059C7.111,7.391 6.531,9.539 6.531,12.74L6.531,30.121C6.531,33.537 7.111,35.75 8.422,37.104C9.775,38.479 12.053,39.016 15.447,39.016L32.828,39.016C35.986,39.016 38.178,38.414 39.531,37.061C40.863,35.729 41.443,33.58 41.443,30.4ZM23.955,11.387C24.299,11.387 24.535,11.623 24.535,11.902L24.535,21.033L33.645,21.033C33.924,21.033 34.182,21.313 34.182,21.57C34.182,21.871 33.945,22.15 33.645,22.15L24.535,22.15L24.535,31.238C24.535,31.539 24.299,31.775 23.955,31.775C23.676,31.775 23.439,31.539 23.439,31.238L23.439,22.15L14.352,22.15C14.029,22.15 13.793,21.871 13.793,21.57C13.793,21.313 14.051,21.033 14.352,21.033L23.439,21.033L23.439,11.902C23.439,11.623 23.676,11.387 23.955,11.387Z" style="fill-rule:nonzero;stroke:black;stroke-width:1.48px;"/>
    </g>
</svg>
