<?xml version="1.0" encoding="UTF-8" standalone="no"?>
<!DOCTYPE svg PUBLIC "-//W3C//DTD SVG 1.1//EN" "http://www.w3.org/Graphics/SVG/1.1/DTD/svg11.dtd">
<svg width="100%" height="100%" viewBox="0 0 21 27" version="1.1" xmlns="http://www.w3.org/2000/svg" xmlns:xlink="http://www.w3.org/1999/xlink" xml:space="preserve" xmlns:serif="http://www.serif.com/" style="fill-rule:evenodd;clip-rule:evenodd;">
    <g transform="matrix(0.500788,2.80159e-32,-2.80159e-32,-0.500788,-1.30049,27.7599)">
        <path d="M23.482,22.15C23.762,22.15 23.998,22.408 23.998,22.688L23.998,47.953L23.977,50.875L26.834,47.996L31.26,43.57C31.367,43.463 31.539,43.377 31.668,43.377C31.904,43.377 32.141,43.613 32.141,43.893C32.141,44.021 32.076,44.129 31.969,44.236L23.848,52.4C23.74,52.486 23.611,52.551 23.482,52.551C23.354,52.551 23.203,52.486 23.117,52.4L14.953,44.236C14.846,44.129 14.781,44.021 14.781,43.893C14.781,43.613 14.996,43.377 15.254,43.377C15.404,43.377 15.555,43.463 15.662,43.57L20.088,47.996L22.967,50.896L22.945,47.953L22.945,22.688C22.945,22.408 23.182,22.15 23.482,22.15ZM11,6.188L35.9,6.188C39.51,6.188 41.422,8.164 41.422,11.709L41.422,34.719C41.422,38.264 39.51,40.24 35.9,40.24L29.498,40.24L29.498,39.188L35.836,39.188C38.715,39.188 40.369,37.641 40.369,34.654L40.369,11.752C40.369,8.787 38.715,7.24 35.836,7.24L11.043,7.24C8.078,7.24 6.531,8.787 6.531,11.752L6.531,34.654C6.531,37.641 8.078,39.188 11.043,39.188L17.445,39.188L17.445,40.24L11,40.24C7.391,40.24 5.479,38.328 5.479,34.719L5.479,11.709C5.479,8.1 7.391,6.188 11,6.188Z" style="fill:rgb(70,147,254);fill-rule:nonzero;stroke:rgb(70,147,254);stroke-width:1.4px;"/>
    </g>
</svg>
